<svg xmlns="http://www.w3.org/2000/svg" width="512" height="512" style="background-color:#fff"><path fill-rule="evenodd" d="M429.399 288.305q-1.874 25.523-3.125 30.104l-13.541 31.458-4.584-1.667q.207-20-1.041-48.437-1.252-28.437-3.334-50.521 5.83-7.08 13.125-13.542c4.86-4.303 9.235-7.5 13.125-9.583q1.25 4.585 1.25 18.125 0 18.545-1.875 44.063m-29.604-58.98q-2.814 8.336-6.771 12.5-7.294 6.46-19.583 10.938c-8.197 2.988-17.5 5.033-27.917 6.146l-56.875 6.041a580 580 0 0 0-39.166 5.417 174 174 0 0 1 19.375 2.813q9.789 1.982 15.833 4.062 0 10.21-4.063 24.375c-2.708 9.447-5.66 16.458-8.854 21.042q-7.295 6.043-22.812 11.354-15.524 5.312-36.354 7.396l-20 2.083q-.21-20.414-1.98-49.896-1.772-29.476-3.854-52.396 5.83-7.081 13.125-13.541 7.29-6.457 13.125-9.584 1.041 4.17 1.042 13.125.206 16.045-2.083 43.021-2.293 26.983-4.167 37.396l16.875-1.875q15.416-1.455 25.104-3.437a246 246 0 0 0 19.063-4.688q-8.336-2.5-22.605-4.583-14.272-2.08-24.687-2.5 8.539-27.915 20.208-46.875 22.707-10.625 58.959-14.375l56.875-6.042q7.914-.83 16.562-2.812 8.644-1.979 15.104-4.48-1.25-12.29-5.416-30-4.168-17.706-8.542-30.833 4.998-8.75 11.667-16.875 6.665-8.125 12.5-12.708 2.29 6.25 4.166 28.229 1.875 21.981 1.875 41.979-.002 4.376-1.458 12.813a112 112 0 0 1-4.271 16.77m-62.153-49.51q-5.522 7.398-11.562 10.729-17.501 6.873-45.417 9.791l-56.875 6.042-56.875 6.042q-4.585.415-6.875.416-12.71 0-26.458-5.208-14.377 11.249-25.521 22.396-11.147 11.144-11.146 14.896 0 7.29 10.625 13.75 10.624 6.455 27.396 10.312a150.7 150.7 0 0 0 33.854 3.854q6.875-.001 10-.208-3.96 7.082-12.5 13.333-8.544 6.249-20.104 10.105-11.563 3.853-24.479 3.854-18.336 0-30-7.813-11.668-7.812-11.667-22.187-.001-13.751 11.146-32.292 11.144-18.543 28.646-37.292-11.669-8.749-11.667-17.708 0-5.206 3.438-13.021 3.436-7.811 6.77-11.146 3.54-3.33 10.209-5.312 6.664-1.978 13.958-1.979 11.875.002 23.958 5.208-1.669 13.543-6.458 24.167a69 69 0 0 0 9.375.625c2.22 0 5.417-.137 9.583-.417l56.875-6.042 56.875-6.041 5.834-.625q4.165-.415 6.25-.834-1.25-2.498-1.25-4.583 0-4.58 3.437-13.437 3.436-8.854 6.979-11.355 3.126-2.288 7.813-3.645 4.686-1.354 9.896-1.355 7.29 0 12.708 2.813 5.416 2.814 5.417 6.771-.002 10.21-3.334 20.104-3.335 9.898-8.854 17.292m-87.951 176.594q5.831 9.582 9.792 14.583l-17.5 11.458q-7.295-5.626-14.584-17.916l19.375-12.917z"/></svg>