<svg xmlns="http://www.w3.org/2000/svg" viewBox="0 0 512 512" width="512" height="512"><rect width="512" height="512" rx="50" ry="50" fill="#fff"/><path fill-rule="evenodd" d="M484.326 313.491q-2.813 38.289-4.688 45.161l-20.314 47.191-6.876-2.5c.205-20.002-.312-44.222-1.562-72.663s-2.921-53.701-5.001-75.788q8.747-10.621 19.689-20.314c7.291-6.456 13.854-11.251 19.69-14.376q1.875 6.877 1.875 27.19 0 27.82-2.813 66.099m-72.541-187.139q-8.285 11.098-17.345 16.095c-17.502 6.875-40.214 11.768-68.132 14.689l-85.32 9.063-85.32 9.063q-6.878.624-10.313.625-19.065.002-39.691-7.813c-14.377 11.251-27.142 22.448-38.285 33.597q-16.722 16.718-16.72 22.346 0 10.935 15.939 20.627 15.938 9.683 41.097 15.47 25.155 5.78 50.786 5.781c6.875 0 11.876-.107 15.001-.312q-5.94 10.623-18.752 20.002-12.815 9.373-30.158 15.157-17.347 5.78-36.723 5.782-27.504 0-45.004-11.72c-11.671-7.813-17.501-18.908-17.501-33.284q-.001-20.628 16.72-48.442 16.718-27.817 42.973-55.942c-11.671-8.751-17.502-17.604-17.502-26.565 0-5.206 1.719-11.72 5.157-19.533q5.156-11.718 10.157-16.72 5.309-4.996 15.314-7.97 9.998-2.968 20.939-2.969c11.876 0 23.855 2.608 35.941 7.813q-2.504 20.317-9.688 36.254 6.87.937 14.063.937c3.331 0 8.126-.205 14.377-.625l85.32-9.063 85.32-9.064 8.751-.937q6.248-.621 9.376-1.25-1.875-3.75-1.875-6.876 0-6.87 5.156-20.158c3.438-8.853 6.925-14.533 10.47-17.033q4.688-3.433 11.72-5.469 7.03-2.03 14.845-2.031 10.935 0 19.064 4.219c5.416 2.812 8.126 6.201 8.126 10.157 0 10.211-1.67 20.265-5.001 30.159q-5.004 14.848-13.282 25.94m-179.044 92.287q1.562 6.256 1.563 19.689.309 24.07-3.126 64.537c-2.295 26.985-4.375 45.683-6.25 56.099l25.315-2.812 85.32-9.064c25.417-2.705 45.419-5.938 60.005-9.688q-27.505-1.875-66.568-8.438l19.064-40.942c6.875 1.25 11.143 1.983 12.814 2.188-1.045-32.083-4.063-62.711-9.064-91.883a195 195 0 0 1 19.846-20.627q10.782-9.684 20.158-14.064c.83 6.251 1.25 15.314 1.25 27.19q0 12.503-1.875 37.347c-1.25 16.564-2.295 26.829-3.126 30.784l-17.501 32.816q34.69 5.003 58.13 6.563 0 15.316-6.094 36.566c-4.063 14.171-8.492 24.689-13.283 31.565q-10.94 8.752-34.847 16.72c-15.938 5.313-34.954 9.112-57.036 11.407l-85.32 9.064-30.003 3.125q-.316-30.624-2.969-74.85-2.66-44.22-5.782-78.601 8.746-10.623 19.69-20.315c7.29-6.455 13.854-11.251 19.689-14.376m121.573 198.455c5.831 9.581 10.729 16.877 14.689 21.877l-26.252 17.189q-10.942-8.439-21.877-26.877l29.065-19.377z"/></svg>